<svg width="22" height="16" viewBox="0 0 22 16" fill="none" xmlns="http://www.w3.org/2000/svg">
<path fill-rule="evenodd" clip-rule="evenodd" d="M21.5919 7.15489C21.4134 6.86235 17.1294 0 10.9067 0C4.68399 0 0.399986 6.86235 0.221486 7.15489C-0.0738286 7.63364 -0.0738286 8.23802 0.221486 8.71677C0.399986 9.00931 4.684 15.8469 10.9018 15.8667H10.9315C17.1344 15.8667 21.4184 9.00435 21.5969 8.71181C21.8887 8.23334 21.8867 7.63149 21.5919 7.15489ZM10.9316 14.3792C5.47742 14.3792 1.51075 7.93335 1.51075 7.93335C1.51075 7.93335 5.47742 1.4875 10.9316 1.4875C16.3858 1.4875 20.3525 7.93335 20.3525 7.93335C20.3525 7.93335 16.3709 14.3792 10.9316 14.3792Z" fill="#1C6E38"/>
<path fill-rule="evenodd" clip-rule="evenodd" d="M10.9066 3.9668C8.71588 3.9668 6.93994 5.74274 6.93994 7.93347C6.93994 10.1242 8.71588 11.9001 10.9066 11.9001C13.0974 11.9001 14.8733 10.1242 14.8733 7.93347C14.8733 5.74274 13.0974 3.9668 10.9066 3.9668ZM10.9067 10.4126C9.53745 10.4126 8.42749 9.30268 8.42749 7.93347C8.42749 6.56426 9.53745 5.4543 10.9067 5.4543C12.2759 5.4543 13.3858 6.56426 13.3858 7.93347C13.3858 9.30268 12.2759 10.4126 10.9067 10.4126Z" fill="#1C6E38"/>
</svg>
